<svg xmlns="http://www.w3.org/2000/svg" xmlns:xlink="http://www.w3.org/1999/xlink" width="500" zoomAndPan="magnify" viewBox="0 0 375 374.999991" height="500" preserveAspectRatio="xMidYMid meet" version="1.0"><defs><clipPath id="f74df7230c"><path d="M 27.734375 0 L 347.234375 0 L 347.234375 375 L 27.734375 375 Z M 27.734375 0 " clip-rule="nonzero"/></clipPath></defs><g clip-path="url(#f74df7230c)"><path fill="#f2732b" d="M 107.617188 40.414062 L 67.675781 40.414062 C 45.613281 40.414062 27.734375 58.292969 27.734375 80.351562 C 27.734375 138.445312 27.734375 276 27.734375 334.09375 C 27.734375 344.683594 31.945312 354.84375 39.433594 362.335938 C 46.921875 369.824219 57.082031 374.035156 67.675781 374.035156 C 123.375 374.035156 251.617188 374.035156 307.316406 374.035156 C 317.910156 374.035156 328.070312 369.824219 335.558594 362.335938 C 343.046875 354.84375 347.257812 344.683594 347.257812 334.09375 C 347.257812 276 347.257812 138.445312 347.257812 80.351562 C 347.257812 58.292969 329.378906 40.414062 307.316406 40.414062 L 267.378906 40.414062 C 267.378906 18.351562 249.496094 0.472656 227.4375 0.472656 C 204.234375 0.472656 170.757812 0.472656 147.554688 0.472656 C 125.496094 0.472656 107.617188 18.351562 107.617188 40.414062 Z M 267.378906 67.039062 C 267.378906 89.097656 249.496094 106.980469 227.4375 106.980469 C 204.234375 106.980469 170.757812 106.980469 147.554688 106.980469 C 125.496094 106.980469 107.617188 89.097656 107.617188 67.039062 L 67.675781 67.039062 C 60.320312 67.039062 54.363281 73 54.363281 80.351562 L 54.363281 334.09375 C 54.363281 337.625 55.761719 341.007812 58.257812 343.507812 C 60.757812 346.003906 64.144531 347.40625 67.675781 347.40625 L 307.316406 347.40625 C 310.847656 347.40625 314.234375 346.003906 316.734375 343.507812 C 319.230469 341.007812 320.632812 337.625 320.632812 334.09375 C 320.632812 276 320.632812 138.445312 320.632812 80.351562 C 320.632812 73 314.671875 67.039062 307.316406 67.039062 Z M 240.75 40.414062 L 240.75 67.039062 C 240.75 74.394531 234.789062 80.351562 227.4375 80.351562 L 147.554688 80.351562 C 140.203125 80.351562 134.242188 74.394531 134.242188 67.039062 C 134.242188 67.039062 134.242188 40.414062 134.242188 40.414062 C 134.242188 33.058594 140.203125 27.097656 147.554688 27.097656 L 227.4375 27.097656 C 234.789062 27.097656 240.75 33.058594 240.75 40.414062 Z M 240.75 40.414062 " fill-opacity="1" fill-rule="evenodd"/></g><path fill="#f2732b" d="M 132.65625 242.816406 L 165.660156 275.820312 C 170.71875 280.878906 178.867188 281.035156 184.117188 276.179688 L 289.730469 178.445312 C 295.125 173.453125 295.453125 165.027344 290.464844 159.632812 C 285.46875 154.238281 277.039062 153.910156 271.648438 158.90625 L 175.433594 247.9375 C 175.433594 247.9375 151.484375 223.988281 151.484375 223.988281 C 146.289062 218.792969 137.851562 218.792969 132.65625 223.988281 C 127.460938 229.183594 127.460938 237.621094 132.65625 242.816406 Z M 132.65625 242.816406 " fill-opacity="1" fill-rule="evenodd"/><path fill="#f2732b" d="M 287.859375 195.953125 C 290.839844 205.710938 292.441406 216.070312 292.441406 226.800781 C 292.441406 285.15625 245.066406 332.53125 186.714844 332.53125 C 128.363281 332.53125 80.988281 285.15625 80.988281 226.800781 C 80.988281 168.449219 128.363281 121.074219 186.714844 121.074219 C 215.421875 121.074219 241.472656 132.542969 260.539062 151.148438 L 240.996094 169.292969 C 226.828125 155.910156 207.722656 147.699219 186.714844 147.699219 C 143.058594 147.699219 107.613281 183.144531 107.613281 226.800781 C 107.613281 270.457031 143.058594 305.902344 186.714844 305.902344 C 230.371094 305.902344 265.8125 270.457031 265.8125 226.800781 C 265.8125 223.476562 265.609375 220.207031 265.207031 216.984375 Z M 287.859375 195.953125 " fill-opacity="1" fill-rule="evenodd"/><path stroke-linecap="round" transform="matrix(0.75, 0, 0, 0.75, 127.499996, 359.357614)" fill="none" stroke-linejoin="miter" d="M 2.000005 2.002348 L 158.000016 2.002348 " stroke="#d24c00" stroke-width="4" stroke-opacity="1" stroke-miterlimit="4"/></svg>